<svg width="100" height="100" viewBox="0 0 100 100" version="1.1" xmlns="http://www.w3.org/2000/svg" xmlns:xlink="http://www.w3.org/1999/xlink">
<title>icon-s</title>
<desc>Created using Figma</desc>
<g id="Canvas" transform="translate(-1239 387)">
<g id="icon-s">
<g id="Ellipse">
<use xlink:href="#path0_fill" transform="translate(1239 -387)" fill="#FFFFFF"/>
</g>
<g id="S">
<use xlink:href="#path1_fill" transform="translate(1239 -387)" fill="#EE4035"/>
</g>
</g>
</g>
<defs>
<path id="path0_fill" d="M 100 50C 100 77.6142 77.6142 100 50 100C 22.3858 100 0 77.6142 0 50C 0 22.3858 22.3858 0 50 0C 77.6142 0 100 22.3858 100 50Z"/>
<path id="path1_fill" d="M 67.511 38.112C 65.591 36.96 63.607 35.936 61.559 35.04C 59.831 34.272 57.879 33.568 55.703 32.928C 53.591 32.224 51.511 31.872 49.463 31.872C 47.799 31.872 46.455 32.128 45.431 32.64C 44.471 33.152 43.991 34.016 43.991 35.232C 43.991 36.128 44.279 36.864 44.855 37.44C 45.431 38.016 46.263 38.56 47.351 39.072C 48.439 39.52 49.751 39.968 51.287 40.416C 52.887 40.864 54.679 41.408 56.663 42.048C 59.799 43.008 62.615 44.064 65.111 45.216C 67.671 46.368 69.847 47.744 71.639 49.344C 73.431 50.88 74.807 52.768 75.767 55.008C 76.727 57.248 77.207 59.968 77.207 63.168C 77.207 67.264 76.439 70.72 74.903 73.536C 73.431 76.288 71.447 78.496 68.951 80.16C 66.519 81.824 63.735 83.04 60.599 83.808C 57.527 84.512 54.423 84.864 51.287 84.864C 48.791 84.864 46.231 84.672 43.607 84.288C 40.983 83.904 38.359 83.36 35.735 82.656C 33.175 81.952 30.679 81.12 28.247 80.16C 25.879 79.2 23.671 78.112 21.623 76.896L 29.687 60.48C 31.927 61.888 34.263 63.136 36.695 64.224C 38.743 65.184 41.047 66.048 43.607 66.816C 46.231 67.584 48.887 67.968 51.575 67.968C 53.623 67.968 55.031 67.712 55.799 67.2C 56.631 66.624 57.047 65.888 57.047 64.992C 57.047 64.032 56.631 63.232 55.799 62.592C 55.031 61.888 53.943 61.28 52.535 60.768C 51.127 60.256 49.495 59.744 47.639 59.232C 45.847 58.72 43.927 58.112 41.879 57.408C 38.871 56.384 36.279 55.296 34.103 54.144C 31.927 52.928 30.135 51.584 28.727 50.112C 27.319 48.576 26.263 46.848 25.559 44.928C 24.919 43.008 24.599 40.8 24.599 38.304C 24.599 34.528 25.271 31.2 26.615 28.32C 28.023 25.44 29.911 23.04 32.279 21.12C 34.647 19.2 37.335 17.76 40.343 16.8C 43.415 15.776 46.647 15.264 50.039 15.264C 52.535 15.264 54.967 15.52 57.335 16.032C 59.703 16.48 61.975 17.088 64.151 17.856C 66.391 18.56 68.471 19.36 70.391 20.256C 72.311 21.088 74.039 21.888 75.575 22.656L 67.511 38.112Z"/>
</defs>
</svg>
