<svg width="588" height="590" viewBox="0 0 588 590" version="1.1" xmlns="http://www.w3.org/2000/svg" xmlns:xlink="http://www.w3.org/1999/xlink">
<title>landing-graphic</title>
<desc>Created using Figma</desc>
<g id="Canvas" transform="translate(489 1381)">
<g id="landing-graphic">
<g id="Vector">
<use xlink:href="#path0_fill" transform="translate(-264 -1092)" fill="#F2F2F2"/>
</g>
<g id="Vector">
<use xlink:href="#path1_fill" transform="translate(-420 -911)" fill="#F2F2F2"/>
</g>
<g id="Vector">
<use xlink:href="#path2_fill" transform="translate(-137 -1097)" fill="#F2F2F2"/>
</g>
<g id="Vector">
<use xlink:href="#path3_fill" transform="translate(-5 -968)" fill="#F2F2F2"/>
</g>
<g id="Vector">
<use xlink:href="#path4_fill" transform="translate(-64 -1346)" fill="#F2F2F2"/>
</g>
<g id="Vector">
<use xlink:href="#path5_fill" transform="translate(-489 -1240)" fill="#F2F2F2"/>
</g>
<g id="Arrow">
<use xlink:href="#path6_stroke" transform="matrix(-0.00396822 0.999992 -0.999992 -0.00396822 96.9995 -1239.28)" fill="#F2F2F2"/>
</g>
<g id="Ellipse 2">
<mask id="mask0_outline_ins">
<use xlink:href="#path7_fill" fill="white" transform="translate(75 -1004)"/>
</mask>
<g mask="url(#mask0_outline_ins)">
<use xlink:href="#path8_stroke_2x" transform="translate(75 -1004)" fill="#F2F2F2"/>
</g>
</g>
<g id="Ellipse 2.2">
<mask id="mask1_outline_ins">
<use xlink:href="#path7_fill" fill="white" transform="translate(-34 -854)"/>
</mask>
<g mask="url(#mask1_outline_ins)">
<use xlink:href="#path8_stroke_2x" transform="translate(-34 -854)" fill="#F2F2F2"/>
</g>
</g>
<g id="Ellipse 2.3">
<mask id="mask2_outline_ins">
<use xlink:href="#path7_fill" fill="white" transform="translate(-312 -835)"/>
</mask>
<g mask="url(#mask2_outline_ins)">
<use xlink:href="#path8_stroke_2x" transform="translate(-312 -835)" fill="#F2F2F2"/>
</g>
</g>
<g id="Ellipse 2.4">
<mask id="mask3_outline_ins">
<use xlink:href="#path7_fill" fill="white" transform="translate(-422 -924)"/>
</mask>
<g mask="url(#mask3_outline_ins)">
<use xlink:href="#path8_stroke_2x" transform="translate(-422 -924)" fill="#F2F2F2"/>
</g>
</g>
<g id="Ellipse 2.5">
<mask id="mask4_outline_ins">
<use xlink:href="#path7_fill" fill="white" transform="translate(-398 -1276)"/>
</mask>
<g mask="url(#mask4_outline_ins)">
<use xlink:href="#path8_stroke_2x" transform="translate(-398 -1276)" fill="#F2F2F2"/>
</g>
</g>
<g id="Ellipse 2.1">
<mask id="mask5_outline_ins">
<use xlink:href="#path7_fill" fill="white" transform="translate(27 -1255)"/>
</mask>
<g mask="url(#mask5_outline_ins)">
<use xlink:href="#path8_stroke_2x" transform="translate(27 -1255)" fill="#F2F2F2"/>
</g>
</g>
<g id="Ellipse 2.6">
<mask id="mask6_outline_ins">
<use xlink:href="#path7_fill" fill="white" transform="translate(-104 -1348)"/>
</mask>
<g mask="url(#mask6_outline_ins)">
<use xlink:href="#path8_stroke_2x" transform="translate(-104 -1348)" fill="#F2F2F2"/>
</g>
</g>
<g id="Line">
<use xlink:href="#path9_stroke" transform="matrix(0.998743 -0.0501299 0.0501299 0.998743 -300.252 -827.011)" fill="#F2F2F2"/>
</g>
<g id="Line 2">
<use xlink:href="#path10_stroke" transform="matrix(0.186485 0.982458 -0.982458 0.186485 -456.509 -1137.09)" fill="#F2F2F2"/>
</g>
<g id="Line 3">
<use xlink:href="#path11_stroke" transform="matrix(0.971731 -0.23609 0.23609 0.971731 -392.687 -1311.87)" fill="#F2F2F2"/>
</g>
</g>
</g>
<defs>
<path id="path0_fill" d="M 79.9989 0L 17.4954 0C 16.1203 0 14.9953 1.12506 14.9953 2.50014L 14.9953 42.5024C 14.9953 49.409 20.5893 55.0031 27.496 55.0031L 62.4979 55.0031C 69.4045 55.0031 74.9986 49.409 74.9986 42.5024L 74.9986 40.0022L 79.9989 40.0022C 91.0308 40.0022 100 31.033 100 20.0011C 100 8.96925 91.0308 0 79.9989 0ZM 67.4982 42.5024C 67.4982 45.2525 65.2481 47.5026 62.4979 47.5026L 27.496 47.5026C 24.7458 47.5026 22.4957 45.2525 22.4957 42.5024L 22.4957 7.50042L 67.4982 7.50042L 67.4982 42.5024ZM 79.9989 32.5018L 74.9986 32.5018L 74.9986 7.50042L 79.9989 7.50042C 86.8899 7.50042 92.4996 13.1101 92.4996 20.0011C 92.4996 26.8921 86.8899 32.5018 79.9989 32.5018ZM 88.7181 70.0039L 6.27604 70.0039C 0.447592 70.0039 -1.56815 62.5035 1.27576 62.5035L 93.734 62.5035C 96.5623 62.5035 94.5466 70.0039 88.7181 70.0039L 88.7181 70.0039Z"/>
<path id="path1_fill" d="M 40.7726 88.837L 34.0365 86.8752C 33.3073 86.6668 32.8733 85.8856 33.0816 85.1564L 57.526 1.00712C 57.7344 0.277958 58.5156 -0.15607 59.2448 0.0522632L 65.9809 2.01407C 66.7101 2.2224 67.1441 3.00365 66.9358 3.73282L 42.4913 87.8821C 42.283 88.6287 41.5191 89.0453 40.7726 88.837L 40.7726 88.837ZM 26.3281 67.8127L 31.0503 62.778C 31.5885 62.205 31.5365 61.3023 30.9635 60.7814L 12.5434 44.4446L 30.9635 28.1078C 31.5538 27.587 31.5885 26.6842 31.0503 26.1113L 26.3281 21.0766C 25.8073 20.521 24.9219 20.4863 24.3663 21.0071L 0.442708 43.4377C -0.147569 43.9932 -0.147569 44.9134 0.442708 45.4689L 24.3663 67.8821C 24.9219 68.403 25.7899 68.3682 26.3281 67.8127ZM 75.651 67.8821L 99.5573 45.4689C 100.148 44.9134 100.148 43.9932 99.5573 43.4377L 75.651 21.0071C 75.0955 20.4863 74.2101 20.5037 73.6892 21.0766L 68.967 26.1113C 68.4288 26.6842 68.4809 27.587 69.0538 28.1078L 87.474 44.4446L 69.0538 60.7814C 68.4635 61.3023 68.4288 62.205 68.967 62.778L 73.6892 67.8127C 74.2274 68.3682 75.0955 68.403 75.651 67.8821Z"/>
<path id="path2_fill" d="M 52.25 30C 45.7188 30 40.2531 34.1406 38.8609 39.6875C 34.7531 39.1406 28.8922 37.6719 24.4406 33.8125C 21.5875 31.3281 19.6453 28.1094 18.6484 24.1875C 23.8219 22.3906 27.5 17.8281 27.5 12.5C 27.5 5.59375 21.3469 0 13.75 0C 6.15312 0 0 5.59375 0 12.5C 0 18.0937 4.03906 22.8281 9.625 24.4219L 9.625 55.5625C 4.03906 57.1719 0 61.9063 0 67.5C 0 74.4063 6.15312 80 13.75 80C 21.3469 80 27.5 74.4063 27.5 67.5C 27.5 61.9063 23.4609 57.1719 17.875 55.5781L 17.875 38.4531C 18.15 38.7188 18.4422 38.9844 18.7344 39.2344C 25.4891 45.0938 34.2719 46.8281 39.5656 47.3281C 41.6453 51.8437 46.5437 55.0156 52.25 55.0156C 59.8469 55.0156 66 49.4219 66 42.5156C 66 35.6094 59.8469 30 52.25 30ZM 13.75 7.5C 16.775 7.5 19.25 9.75 19.25 12.5C 19.25 15.25 16.775 17.5 13.75 17.5C 10.725 17.5 8.25 15.25 8.25 12.5C 8.25 9.75 10.725 7.5 13.75 7.5ZM 13.75 72.5C 10.725 72.5 8.25 70.25 8.25 67.5C 8.25 64.75 10.725 62.5 13.75 62.5C 16.775 62.5 19.25 64.75 19.25 67.5C 19.25 70.25 16.775 72.5 13.75 72.5ZM 52.25 47.5C 49.225 47.5 46.75 45.25 46.75 42.5C 46.75 39.75 49.225 37.5 52.25 37.5C 55.275 37.5 57.75 39.75 57.75 42.5C 57.75 45.25 55.275 47.5 52.25 47.5Z"/>
<path id="path3_fill" d="M 50 10.7143C 71.6891 10.7143 89.2857 16.9025 89.2857 24.4897L 89.2857 25.51C 89.2857 33.0975 71.6891 39.2857 50 39.2857C 28.3109 39.2857 10.7143 33.0975 10.7143 25.5103L 10.7143 24.49C 10.7143 16.9025 28.3109 10.7143 50 10.7143ZM 89.2857 40.8522L 89.2857 46.7449C 89.2857 54.3321 71.6891 60.5203 50 60.5203C 28.3109 60.5203 10.7143 54.3321 10.7143 46.7449L 10.7143 40.8522C 19.1547 47.0942 34.6029 50 50 50C 65.3971 50 80.8453 47.0942 89.2857 40.8522ZM 89.2857 62.2808L 89.2857 68.2705C 89.2857 75.8578 71.6891 82.046 50 82.046C 28.3109 82.046 10.7143 75.8576 10.7143 68.2703L 10.7143 62.2806C 19.1547 68.5228 34.6029 71.4286 50 71.4286C 65.3971 71.4286 80.8453 68.5228 89.2857 62.2808ZM 89.2857 83.7094L 89.2857 89.796C 89.2857 97.3833 71.6891 103.571 50 103.571C 28.3109 103.571 10.7143 97.3833 10.7143 89.796L 10.7143 83.7094C 19.1547 89.9513 34.6029 92.8571 50 92.8571C 65.3971 92.8571 80.8453 89.9513 89.2857 83.7094ZM 50 0C 30.592 0 0 5.19196 0 24.4897L 0 89.7958C 0 109.098 30.5871 114.286 50 114.286C 69.408 114.286 100 109.094 100 89.796L 100 24.4897C 100 5.18795 69.4129 0 50 0Z"/>
<path id="path4_fill" d="M 69.8453 59.8928L 75.4009 54.3371C 76.269 53.469 77.7795 54.0767 77.7795 55.3267L 77.7795 80.5703C 77.7795 85.1711 74.0467 88.9038 69.4459 88.9038L 8.33351 88.9038C 3.73272 88.9038 0 85.1711 0 80.5703L 0 19.4579C 0 14.8571 3.73272 11.1244 8.33351 11.1244L 55.8172 11.1244C 57.0498 11.1244 57.6749 12.6175 56.8068 13.5029L 51.2511 19.0586C 50.9907 19.319 50.6435 19.4579 50.2615 19.4579L 8.33351 19.4579L 8.33351 80.5703L 69.4459 80.5703L 69.4459 60.865C 69.4459 60.5004 69.5848 60.1532 69.8453 59.8928ZM 97.0334 24.8573L 51.4421 70.4486L 35.7473 72.1847C 31.1986 72.6882 27.327 68.8513 27.8305 64.2679L 29.5666 48.5731L 75.1579 2.98184C 79.1337 -0.993945 85.5574 -0.993945 89.5158 2.98184L 97.016 10.482C 100.992 14.4578 100.992 20.8989 97.0334 24.8573L 97.0334 24.8573ZM 79.8802 30.222L 69.7932 20.135L 37.5355 52.41L 36.2681 63.747L 47.6052 62.4796L 79.8802 30.222ZM 91.1304 16.3849L 83.6303 8.88474C 82.9185 8.17292 81.7552 8.17292 81.0608 8.88474L 75.6961 14.2494L 85.7831 24.3365L 91.1478 18.9718C 91.8423 18.2426 91.8423 17.0967 91.1304 16.3849L 91.1304 16.3849Z"/>
<path id="path5_fill" d="M 96.25 10L 88.75 10C 87.6395 10 86.6422 10.483 85.9556 11.25L 82.2797 11.25L 77.4156 5.57812L 77.3906 5.55C 75.8656 3.80653 73.9854 2.40933 71.8761 1.45211C 69.7668 0.494884 67.4773 -0.000220567 65.1609 7.37128e-08L 57.8875 7.37128e-08C 55.1141 7.37128e-08 52.4344 0.771875 50.1234 2.18906C 47.5516 0.770312 44.6359 7.37128e-08 41.6594 7.37128e-08L 36.6422 7.37128e-08C 32.1261 7.37128e-08 27.6423 1.75297 24.2672 5.125L 18.1438 11.25L 14.0444 11.25C 13.3578 10.483 12.3605 10 11.25 10L 3.75 10C 1.67891 10 0 11.6789 0 13.75L 0 51.25C 0 53.3211 1.67891 55 3.75 55L 11.25 55C 12.8827 55 14.2709 53.9562 14.7858 52.5L 17.7234 52.5L 29.4969 63.0578C 33.4878 67.1906 38.8602 70 44.5875 70C 47.1484 70 49.6312 69.3984 51.7906 68.2922C 55.6869 68.3697 59.7752 66.6722 62.5828 63.3844C 65.6584 62.5127 68.4427 60.6616 70.5078 57.9781C 73.7873 57.2905 76.8716 55.4013 78.8547 52.5L 85.2142 52.5C 85.7291 53.9562 87.1173 55 88.75 55L 96.25 55C 98.3211 55 100 53.3211 100 51.25L 100 13.75C 100 11.6789 98.3211 10 96.25 10ZM 7.5 50C 6.11922 50 5 48.8808 5 47.5C 5 46.1192 6.11922 45 7.5 45C 8.88078 45 10 46.1192 10 47.5C 10 48.8808 8.88078 50 7.5 50ZM 71.9562 49.1C 69.5578 51.3336 66.1931 50.87 65.7141 50.35C 65.935 52.4409 62.8614 56.763 58.0453 56.425C 57.1795 59.3192 53.6362 61.7103 50 60.4484C 48.6109 61.8375 46.4906 62.5 44.5875 62.5C 40.6891 62.5 37.1234 60.2281 34.7219 57.6703L 22.0187 46.2781C 21.1019 45.4552 19.9133 45 18.6812 45L 15 45L 15 18.75L 19.1797 18.75C 20.5047 18.75 21.7766 18.2234 22.7141 17.2859L 29.5703 10.4297C 30.499 9.5009 31.6015 8.76413 32.8149 8.26145C 34.0283 7.75877 35.3288 7.50003 36.6422 7.5L 41.6594 7.5C 42.5656 7.5 43.4578 7.62344 44.3156 7.85938L 37.5547 15.7484C 33.8734 20.0422 33.8297 26.3141 37.4516 30.6609C 42.5122 36.7337 51.7294 36.7903 56.9016 30.9703L 60.9609 26.2703L 72.2797 41.25C 74.3797 43.5313 73.9906 47.2078 71.9562 49.1ZM 85 45L 81.1784 45C 81.1947 41.8342 80.1161 38.8547 78.0906 36.5L 65.8906 20.3562C 66.5953 18.8703 66.2563 17.0391 64.9516 15.9109C 63.3773 14.553 61.0094 14.7392 59.6609 16.2984L 51.2813 26.0047C 49.1206 28.4125 45.3089 28.3711 43.2125 25.8594C 42.5975 25.1249 42.2635 24.1958 42.2701 23.2379C 42.2767 22.28 42.6234 21.3556 43.2484 20.6297L 52.2984 10.0703C 52.9894 9.26395 53.8467 8.61669 54.8115 8.17301C 55.7762 7.72933 56.8256 7.49974 57.8875 7.5L 65.1609 7.5C 67.6781 7.5 70.0734 8.58438 71.7344 10.475L 78.8312 18.75L 85 18.75L 85 45ZM 92.5 50C 91.1192 50 90 48.8808 90 47.5C 90 46.1192 91.1192 45 92.5 45C 93.8808 45 95 46.1192 95 47.5C 95 48.8808 93.8808 50 92.5 50Z"/>
<path id="path6_stroke" d="M -1.3896 54.4217C -2.53737 55.1891 -2.84568 56.7417 -2.07822 57.8895C -1.31077 59.0373 0.24183 59.3456 1.3896 58.5781L -1.3896 54.4217ZM 234.757 12.0025C 236.102 12.3111 237.444 11.4704 237.752 10.1246C 238.061 8.77882 237.22 7.43764 235.874 7.12899L 234.757 12.0025ZM 1.3896 58.5781C 45.5819 29.029 83.196 12.6799 120.046 6.04782C 156.891 -0.583218 193.168 2.46398 234.757 12.0025L 235.874 7.12899C 193.887 -2.50103 156.888 -5.66311 119.161 1.12688C 81.4386 7.91585 43.1833 24.6181 -1.3896 54.4217L 1.3896 58.5781Z"/>
<path id="path7_fill" d="M 18 9C 18 13.9706 13.9706 18 9 18C 4.02944 18 0 13.9706 0 9C 0 4.02944 4.02944 0 9 0C 13.9706 0 18 4.02944 18 9Z"/>
<path id="path8_stroke_2x" d="M 13 9C 13 11.2091 11.2091 13 9 13L 9 23C 16.732 23 23 16.732 23 9L 13 9ZM 9 13C 6.79086 13 5 11.2091 5 9L -5 9C -5 16.732 1.26801 23 9 23L 9 13ZM 5 9C 5 6.79086 6.79086 5 9 5L 9 -5C 1.26801 -5 -5 1.26801 -5 9L 5 9ZM 9 5C 11.2091 5 13 6.79086 13 9L 23 9C 23 1.26801 16.732 -5 9 -5L 9 5Z"/>
<path id="path9_stroke" d="M -1.14026 6.74172C 84.1211 50.4397 169.111 49.0556 270.14 2.26855L 268.039 -2.26855C 168.152 43.9895 84.8013 45.1698 1.14026 2.29209L -1.14026 6.74172Z"/>
<path id="path10_stroke" d="M -0.841152 2.35424C 43.1661 18.0777 77.6657 26.2502 111.787 26.5163C 145.922 26.7826 179.482 19.1348 221.615 3.52196L 219.877 -1.16649C 178.054 14.3316 145.13 21.7762 111.826 21.5165C 78.5078 21.2566 44.6123 13.2848 0.841152 -2.35424L -0.841152 2.35424Z"/>
<path id="path11_stroke" d="M 1.19222 42.7279C 50.3788 16.0413 98.3301 2.58606 146.184 2.50039C 194.035 2.41472 241.946 15.6969 291.057 42.7207L 293.467 38.3402C 243.742 10.9778 195.004 -2.58702 146.175 -2.4996C 97.3472 -2.41218 48.5855 11.3257 -1.19222 38.333L 1.19222 42.7279Z"/>
</defs>
</svg>
