<svg width="100" height="50" viewBox="0 0 100 50" fill="none" xmlns="http://www.w3.org/2000/svg">
<path d="M96.25 0H3.75C1.67891 0 0 1.67891 0 3.75V46.25C0 48.3211 1.67891 50 3.75 50H96.25C98.3211 50 100 48.3211 100 46.25V3.75C100 1.67891 98.3211 0 96.25 0ZM47.5 45H5V5H47.5V45ZM95 45H52.5V5H95V45ZM14.2325 40H15.8481C16.2427 40 16.6273 39.8755 16.947 39.6443C17.2667 39.413 17.5054 39.0868 17.6289 38.712L19.7395 32.31H30.2606L32.3712 38.712C32.4948 39.0868 32.7334 39.413 33.0532 39.6442C33.3729 39.8755 33.7574 40 34.152 40H35.7675C37.0606 40 37.9655 38.7219 37.5361 37.5023L28.2931 11.2523C28.1642 10.8862 27.9249 10.5691 27.6081 10.3448C27.2913 10.1205 26.9127 10 26.5245 10H23.4756C23.0875 9.99999 22.7089 10.1204 22.3921 10.3447C22.0753 10.569 21.836 10.8861 21.707 11.2522L12.4641 37.5022C12.0345 38.7219 12.9394 40 14.2325 40ZM23.7111 19.8452C24.3028 18.1548 24.9787 15.1972 24.9787 15.1972H25.0633C25.0633 15.1972 25.6972 18.1548 26.2464 19.8452L28.9083 27.8733H21.0492L23.7111 19.8452V19.8452ZM60 18.125V16.875C60 15.8395 60.8395 15 61.875 15H72.5V11.875C72.5 10.8395 73.3395 10 74.375 10H75.625C76.6605 10 77.5 10.8395 77.5 11.875V15H88.125C89.1605 15 90 15.8395 90 16.875V18.125C90 19.1605 89.1605 20 88.125 20H85.672C84.4994 23.8753 82.0108 27.9597 78.657 31.6941C80.2216 33.1133 81.8562 34.3917 83.4889 35.4575C84.3189 35.9992 84.5806 37.0942 84.0889 37.9547L83.4659 39.0447C82.9302 39.9823 81.7178 40.2703 80.8108 39.6839C78.7569 38.3558 76.8427 36.8344 75.0983 35.2308C73.2633 36.8642 71.2692 38.3786 69.162 39.712C68.2619 40.2817 67.0669 39.9773 66.5384 39.0525L65.9178 37.9666C65.4183 37.0925 65.7023 35.9866 66.5519 35.4464C68.3303 34.3156 70.0237 33.0358 71.5894 31.6609C70.0228 29.8997 68.672 28.1356 67.5758 26.4995C66.9769 25.6056 67.2461 24.3933 68.17 23.8417L69.243 23.2013C70.0975 22.6913 71.2039 22.9355 71.7573 23.7625C72.7541 25.2517 73.9009 26.723 75.1444 28.1302C77.4908 25.4841 79.3195 22.6763 80.3864 20H61.875C60.8395 20 60 19.1605 60 18.125Z" fill="#E7E7E7"/>
</svg>
