<svg width="50" height="50" viewBox="0 0 50 50" fill="none" xmlns="http://www.w3.org/2000/svg">
<path d="M11.1917 49.9888H0.825709V16.6146H11.1917V49.9888V49.9888ZM6.00312 12.062C2.68913 12.062 0 9.31712 0 6.00312C0 2.68913 2.68913 0 6.00312 0C9.31712 0 12.0062 2.68913 12.0062 6.00312C12.0062 9.31712 9.31712 12.062 6.00312 12.062ZM49.9888 49.9888H39.6452V33.7425C39.6452 29.8706 39.5671 24.9052 34.2557 24.9052C28.8663 24.9052 28.0406 29.1118 28.0406 33.4635V49.9888H17.6858V16.6146H27.6278V21.1671H27.7728C29.1564 18.545 32.5374 15.7777 37.5809 15.7777C48.0696 15.7777 50 22.6847 50 31.6559V49.9888H49.9888Z" fill="#1B1F29"/>
</svg>
